<?xml version="1.0" encoding="UTF-8"?>
<svg id="Layer_1" data-name="Layer 1" xmlns="http://www.w3.org/2000/svg" viewBox="0 0 612 792">
  <defs>
    <style>
      .cls-1 {
        stroke-width: 3px;
      }

      .cls-1, .cls-2, .cls-3, .cls-4, .cls-5, .cls-6 {
        opacity: .5;
      }

      .cls-1, .cls-2, .cls-3, .cls-4, .cls-5, .cls-6, .cls-7 {
        fill: none;
        stroke: #dba7cc;
        stroke-miterlimit: 10;
      }

      .cls-2 {
        stroke-width: 6px;
      }

      .cls-3 {
        stroke-width: 4px;
      }

      .cls-4 {
        stroke-width: 12px;
      }

      .cls-5 {
        stroke-width: 8px;
      }

      .cls-6 {
        stroke-width: 2px;
      }

      .cls-7 {
        opacity: .8;
        stroke-width: .75px;
      }

      .cls-8 {
        fill: #101123;
      }
    </style>
  </defs>
  <rect class="cls-8" x="-72.46" y="107.79" width="756.91" height="612" transform="translate(-107.79 719.79) rotate(-90)"/>
  <rect class="cls-8" x="288.38" y="-288.63" width="35.24" height="612" transform="translate(288.63 323.37) rotate(-90)"/>
  <line class="cls-5" x1="81.15" y1="35.34" x2="81.15" y2="792.25"/>
  <line class="cls-5" x1="527.47" y1="35.34" x2="527.47" y2="792.25"/>
  <line class="cls-2" x1="131.29" y1="35.34" x2="131.29" y2="792.25"/>
  <line class="cls-2" x1="475.37" y1="35.34" x2="475.37" y2="792.25"/>
  <line class="cls-3" x1="181.43" y1="35.34" x2="181.43" y2="792.25"/>
  <line class="cls-3" x1="423.27" y1="35.34" x2="423.27" y2="792.25"/>
  <line class="cls-3" x1="227.07" y1="35.34" x2="227.07" y2="792.25"/>
  <line class="cls-3" x1="377.27" y1="35.34" x2="377.27" y2="792.25"/>
  <line class="cls-1" x1="250.07" y1="35.34" x2="250.07" y2="792.25"/>
  <line class="cls-3" x1="353.22" y1="35.34" x2="353.22" y2="792.25"/>
  <line class="cls-7" x1="-.78" y1="731.77" x2="611.22" y2="731.77"/>
  <line class="cls-7" y1="712.16" x2="612" y2="712.16"/>
  <line class="cls-7" x1="-.15" y1="693.18" x2="611.85" y2="693.18"/>
  <line class="cls-7" x1="-1.24" y1="672.94" x2="610.76" y2="672.94"/>
  <line class="cls-7" x1="-1.4" y1="144.31" x2="610.6" y2="144.31"/>
  <line class="cls-7" x1="-.62" y1="124.7" x2="611.38" y2="124.7"/>
  <line class="cls-7" x1="-.77" y1="105.72" x2="611.23" y2="105.72"/>
  <line class="cls-7" x1="-1.86" y1="85.48" x2="610.14" y2="85.48"/>
  <line class="cls-3" x1="0" y1="327.46" x2="612" y2="327.46"/>
  <line class="cls-5" x1="0" y1="315.06" x2="612" y2="315.06"/>
  <line class="cls-5" x1="0" y1="312.63" x2="612" y2="312.63"/>
  <line class="cls-3" y1="333.97" x2="612" y2="333.97"/>
  <line class="cls-3" x1="0" y1="616.21" x2="612" y2="616.21"/>
  <line class="cls-6" x1="-.15" y1="608.41" x2="611.85" y2="608.41"/>
  <line class="cls-4" x1="319.25" y1="35.34" x2="319.25" y2="792.25"/>
  <line class="cls-6" x1="330.23" y1="35.34" x2="330.23" y2="792.25"/>
</svg>